<svg xmlns="http://www.w3.org/2000/svg" xml:space="preserve" width="256" height="256" viewBox="0 0 67.733 67.733"><rect width="100%" height="100%" fill="#5b3eea"/><path d="M33.495 51.481c-.45-.014-.938-.075-1.78-.223a17.314 17.314 0 0 1-3.415-.99c-1.216-.5-2.42-1.15-3.447-1.86-1.05-.726-2.252-1.78-2.437-2.135-.05-.097-.048-.232.006-.302.096-.126.264-.177 1.253-.386a94.483 94.483 0 0 0 3.505-.787c2.3-.558 4.429-1.128 5.818-1.56 3.735-1.16 3.61-1.118 6.336-2.104.616-.223 2.746-1.03 3.495-1.323 1.2-.47 2.507-1.021 4.304-1.816a97.718 97.718 0 0 0 3.29-1.526c.58-.278.759-.347.902-.35.128-.004.194.035.247.147.169.36-.27 2.447-.855 4.06a16.547 16.547 0 0 1-1.962 3.772c-.22.308-.61.817-.827 1.077a49.832 49.832 0 0 1-1.73 1.816 18.388 18.388 0 0 1-1.891 1.513 19.107 19.107 0 0 1-3.78 1.977c-1.05.393-2.14.672-3.474.887-.57.092-.66.1-1.069.108-.915.015-2.077.018-2.489.005M8.741 45.466c-.31-.03-1.146-.145-1.39-.192-.641-.123-1.324-.35-1.71-.569-.366-.206-.693-.51-.84-.782-.278-.51-.245-1.022.109-1.728.243-.485.571-.917 1.145-1.507a17.026 17.026 0 0 1 2.023-1.79 34.877 34.877 0 0 1 1.649-1.135c.599-.379 1.308-.76 1.371-.739.012.005 0 .035-.025.068-.06.078-.528.491-.913.806a766.032 787.881 0 0 0-.651.533c-.931.763-1.671 1.516-2.003 2.04a3.789 3.789 0 0 0-.487 1.15c-.046.22-.047.593-.002.775.126.51.54.946 1.158 1.22.41.182.868.287 1.8.416l.591.08h.975c.777.001 1.04-.006 1.297-.035.176-.02.41-.042.518-.05.109-.007.365-.031.57-.053.206-.021.467-.045.581-.053a52.974 52.974 0 0 0 2.085-.224c2.876-.363 7.135-1.229 11.19-2.274a102.754 102.754 0 0 0 7.29-2.143 645.624 664.04 0 0 1 1.319-.438c.331-.11.84-.287 1.13-.394.29-.107.709-.26.932-.34 1.828-.655 3.579-1.331 5.07-1.959 1.828-.768 2.921-1.25 4.107-1.811l1.27-.6a72.002 72.002 0 0 0 5.502-2.857c1.115-.64 1.36-.79 2.202-1.34 1.73-1.13 2.667-1.866 3.627-2.85.575-.588.84-.932 1.062-1.381.383-.774.335-1.43-.144-1.963a2.137 2.137 0 0 0-.522-.406c-.455-.236-1.212-.406-2.19-.491a16.143 16.143 0 0 1-.55-.053c-.172-.034-.596-.056-1.402-.074a23.234 23.234 0 0 1-1.117-.045c-.221-.025-.354-.06-.352-.095.002-.031.167-.11.31-.149.234-.063 1.098-.2 1.42-.224.177-.014.47-.048.653-.077.66-.103 1.69-.115 2.458-.03.2.022.498.046.664.053.711.032 1.508.169 2.061.356.328.11.79.343.998.502.404.309.599.672.596 1.116-.004.686-.404 1.468-1.235 2.414a35.49 35.49 0 0 1-1.477 1.481c-.73.667-1.522 1.276-2.81 2.162-1.359.934-1.971 1.308-3.796 2.32a108.742 108.742 0 0 1-3.588 1.922c-2.827 1.416-4.29 2.08-7.881 3.578-1.492.622-5.45 2.106-7.104 2.663-1.306.44-3.906 1.244-5.21 1.612-5.381 1.52-11.05 2.725-15.002 3.19-1.276.151-1.553.182-2.198.247-.36.036-.822.086-1.027.111-.353.044-.471.047-2.147.05a62.32 62.32 0 0 1-1.96-.014m10.26-4.055a.642.642 0 0 1-.28-.188c-.297-.364-.923-2.056-1.235-3.339a20.436 20.436 0 0 1-.28-1.493c-.115-.798-.16-1.145-.181-1.43-.028-.36-.012-1.996.02-2.227.013-.087.038-.332.055-.544.121-1.456.365-2.679.807-4.034.493-1.512 1.021-2.612 1.913-3.984.33-.507.854-1.23 1.135-1.565.325-.389.987-1.095 1.281-1.366l.514-.474a16.309 16.309 0 0 1 4.565-3.006 17.644 17.644 0 0 1 5.091-1.39c.206-.025.467-.06.581-.079.16-.026.43-.036 1.164-.044.867-.008.993-.005 1.338.034.21.025.521.06.692.078 1.568.17 3.265.582 4.516 1.096 1.363.56 2.933 1.458 4.033 2.31.412.317.965.772 1.196.983.283.258 1.17 1.166 1.402 1.434a22.846 22.846 0 0 1 1.733 2.28c.536.827 1.215 2.174 1.577 3.128.228.6.48 1.456.602 2.037.14.672.05.906-.459 1.177-.326.174-2.536 1.237-3.624 1.743-3.485 1.622-5.89 2.624-9.368 3.9-2.99 1.097-6.352 2.149-9.157 2.865a169.95 174.798 0 0 0-1.66.434c-1.714.46-4.16 1.025-6.481 1.495-.906.183-1.295.227-1.49.17m15.614-5.886c.342-.045.707-.18 1-.368.81-.52 1.172-1.644.691-2.138a.531.531 0 0 0-.398-.177c-.285-.016-.46.116-.701.53-.227.389-.43.57-.73.65-.303.081-.627-.017-.869-.264-.117-.12-.198-.248-.362-.577-.12-.236-.272-.405-.437-.48-.313-.145-.671.002-.825.338-.21.461.058 1.243.63 1.836.337.349.75.569 1.202.641.204.033.59.037.8.009m-7.683-2.91c.654-.13 1.29-.535 1.654-1.055.135-.192.318-.542.396-.753a2.852 2.852 0 0 0-.054-2.081c-.358-.839-1.166-1.495-1.98-1.607-.244-.033-.962-.013-1.159.033-.63.146-1.13.473-1.5.977-.378.515-.53.937-.557 1.552-.039.878.237 1.624.822 2.22.4.408.986.686 1.588.753.154.017.62-.006.79-.04m15.171-.907a2.638 2.638 0 0 0 1.389-.78c.336-.365.598-.9.717-1.47.05-.24.05-.709 0-.95a3.762 3.762 0 0 0-.495-1.215 2.696 2.696 0 0 0-.966-.853 3.678 3.678 0 0 0-.802-.266 2.884 2.884 0 0 0-.848-.001 2.71 2.71 0 0 0-2.067 1.68c-.283.706-.321 1.33-.121 1.946.348 1.07 1.212 1.834 2.209 1.951.247.03.745.008.984-.042z" style="fill:#fff;stroke-width:.0795004"/></svg>