<svg xmlns="http://www.w3.org/2000/svg" xml:space="preserve" width="2871.674" height="1652.168" viewBox="0 0 759.797 437.136"><path d="M91.46 364.907c-5.745-.171-11.975-.93-22.724-2.768-14.177-2.425-30.186-6.941-43.553-12.288-15.507-6.202-30.88-14.264-43.974-23.063-13.387-8.995-28.73-22.065-31.087-26.481-.642-1.204-.608-2.868.076-3.738 1.227-1.56 3.375-2.203 15.982-4.786 21.447-4.395 28.083-5.844 44.715-9.763 29.354-6.918 56.498-13.992 74.216-19.341 47.647-14.387 46.058-13.874 80.83-26.11 7.854-2.764 35.035-12.763 44.582-16.401 15.302-5.831 31.978-12.672 54.901-22.524 14.46-6.214 22.648-9.904 41.983-18.924 7.403-3.453 9.67-4.313 11.494-4.358 1.644-.04 2.485.45 3.156 1.84 2.154 4.463-3.455 30.347-10.91 50.348-6.038 16.2-15.235 33.393-25.027 46.783-2.797 3.826-7.781 10.138-10.548 13.359-2.646 3.08-18.569 19.336-22.066 22.528-6.264 5.717-16.314 13.532-24.132 18.767-13.84 9.266-32.758 18.887-48.212 24.518-13.39 4.879-27.305 8.331-44.325 10.997-7.274 1.14-8.414 1.251-13.626 1.337-11.674.193-26.5.224-31.75.068m-315.78-74.6c-3.961-.37-14.628-1.804-17.727-2.384-8.186-1.53-16.897-4.345-21.828-7.054-4.66-2.56-8.83-6.338-10.711-9.703-3.543-6.335-3.131-12.671 1.391-21.435 3.102-6.01 7.288-11.365 14.604-18.683 8.465-8.467 16.807-15.645 25.805-22.202 4.877-3.555 15.888-10.93 21.034-14.088 7.645-4.692 16.687-9.424 17.495-9.155.149.05.003.43-.323.844-.757.963-6.727 6.086-11.644 9.993a9772 9772 0 0 0-8.306 6.609c-11.879 9.464-21.315 18.803-25.555 25.292-2.86 4.376-5.295 9.974-6.208 14.269-.583 2.739-.593 7.36-.02 9.613 1.601 6.317 6.89 11.735 14.771 15.133 5.23 2.255 11.074 3.567 22.965 5.156l7.54 1.008 12.436.001c9.913.001 13.268-.09 16.537-.448 2.255-.247 5.232-.524 6.614-.616 1.383-.093 4.657-.388 7.276-.656 2.62-.269 5.953-.565 7.409-.658 4.139-.265 17.146-1.628 26.59-2.786 36.694-4.5 91.029-15.233 142.743-28.197 34.52-8.654 61.649-16.407 93.001-26.577a8236 8236 0 0 1 16.823-5.435c4.232-1.36 10.72-3.561 14.42-4.89 3.698-1.328 9.046-3.224 11.884-4.213 23.328-8.127 45.661-16.515 64.69-24.296 23.308-9.53 37.259-15.514 52.388-22.471 5.384-2.476 12.677-5.827 16.206-7.447 27.114-12.445 46.972-22.468 70.18-35.426 14.22-7.938 17.35-9.79 28.082-16.609 22.087-14.033 34.022-23.15 46.274-35.348 7.331-7.298 10.706-11.568 13.544-17.138 4.89-9.6 4.28-17.742-1.827-24.351-1.64-1.775-4.488-3.92-6.67-5.026-5.796-2.936-15.458-5.044-27.94-6.095-3.493-.294-6.649-.591-7.012-.66-2.194-.413-7.598-.691-17.876-.92-6.413-.142-12.828-.39-14.257-.548-2.817-.315-4.515-.76-4.488-1.18.026-.39 2.129-1.377 3.945-1.85 2.992-.78 14.022-2.472 18.124-2.781 2.255-.17 6.006-.598 8.334-.952 8.416-1.276 21.557-1.433 31.353-.375 2.547.275 6.357.574 8.467.664 9.074.386 19.242 2.09 26.295 4.405 4.18 1.373 10.066 4.254 12.732 6.231 5.157 3.827 7.634 8.334 7.604 13.841-.046 8.504-5.152 18.204-15.763 29.944-2.747 3.04-14.724 14.725-18.832 18.372-9.314 8.272-19.413 15.824-35.849 26.808-17.333 11.584-25.148 16.23-48.419 28.783-18.577 10.022-35.42 18.792-45.772 23.831-36.067 17.558-54.733 25.797-100.542 44.38-19.025 7.718-69.515 26.117-90.62 33.022-16.658 5.451-49.831 15.432-66.457 19.996-68.654 18.844-140.974 33.799-191.38 39.575-16.282 1.865-19.807 2.249-28.045 3.051-4.584.447-10.478 1.07-13.097 1.385-4.5.54-6.01.575-27.384.621-12.442.027-23.694-.051-25.004-.174m130.874-50.293c-1.22-.352-2.72-1.335-3.562-2.335-3.798-4.514-11.782-25.503-15.755-41.415-1.081-4.332-2.771-13.08-3.578-18.52-1.468-9.894-2.028-14.203-2.306-17.732-.353-4.473-.158-24.753.265-27.624.16-1.08.473-4.115.697-6.746 1.538-18.064 4.656-33.225 10.288-50.028C-101.11 56.86-94.37 43.217-82.987 26.2c4.21-6.292 10.886-15.25 14.473-19.419C-64.371 1.965-55.92-6.79-52.168-10.152c1.923-1.724 4.874-4.372 6.557-5.886 17.644-15.865 36.813-28.14 58.226-37.287 21.047-8.99 42.196-14.604 64.955-17.243 2.62-.303 5.953-.74 7.408-.97 2.03-.322 5.488-.448 14.851-.541 11.058-.11 12.663-.07 17.066.421 2.673.3 6.646.732 8.83.962 20.001 2.11 41.642 7.216 57.609 13.593 17.386 6.942 37.406 18.087 51.446 28.64 5.247 3.942 12.305 9.589 15.256 12.204 3.608 3.197 14.927 14.458 17.882 17.79 8.104 9.137 16.615 20.02 22.113 28.274 6.835 10.262 15.496 26.967 20.114 38.798 2.905 7.441 6.132 18.056 7.682 25.267 1.79 8.328.625 11.232-5.854 14.593-4.162 2.16-32.36 15.349-46.232 21.625-44.46 20.116-75.148 32.535-119.512 48.364-38.146 13.61-81.026 26.655-116.813 35.535a2168 2168 0 0 0-21.167 5.383c-21.874 5.713-53.084 12.71-82.682 18.537-11.56 2.276-16.517 2.825-19.013 2.107m199.194-72.995c4.362-.564 9.02-2.233 12.753-4.568 10.321-6.458 14.953-20.387 8.817-26.517-1.492-1.491-2.833-2.07-5.08-2.195-3.632-.2-5.865 1.44-8.947 6.572-2.897 4.824-5.49 7.07-9.314 8.066-3.861 1.005-7.995-.216-11.076-3.272-1.492-1.48-2.525-3.078-4.627-7.154-1.515-2.938-3.46-5.024-5.564-5.968-3.996-1.793-8.568.033-10.53 4.206-2.685 5.713.741 15.415 8.04 22.766 4.299 4.329 9.555 7.057 15.326 7.953 2.602.405 7.52.458 10.202.111M7.742 130.921c8.35-1.599 16.463-6.626 21.108-13.078 1.713-2.379 4.057-6.72 5.044-9.343 3.126-8.305 2.877-17.688-.685-25.81-4.563-10.405-14.88-18.547-25.25-19.927-3.125-.415-12.282-.166-14.791.403-8.027 1.82-14.409 5.864-19.136 12.125-4.822 6.387-6.75 11.613-7.1 19.24-.5 10.898 3.02 20.148 10.48 27.54 5.1 5.056 12.577 8.502 20.254 9.336 1.965.214 7.923-.074 10.076-.486m193.536-11.257c6.818-1.39 13.106-4.825 17.715-9.678 4.293-4.52 7.627-11.166 9.147-18.232.638-2.964.64-8.787.004-11.774-1.09-5.127-3.489-10.85-6.32-15.076-2.71-4.048-7.493-8.152-12.324-10.576-2.371-1.19-7.408-2.818-10.222-3.304-3.023-.522-7.867-.529-10.816-.014-12.12 2.113-21.82 9.782-26.379 20.853-3.602 8.749-4.095 16.482-1.537 24.123 4.445 13.28 15.464 22.746 28.176 24.204 3.158.362 9.504.096 12.556-.526z" style="fill:#fff" transform="translate(276.953 72.13)"/></svg>